<svg width="227" height="48" viewBox="0 0 227 48" fill="none" xmlns="http://www.w3.org/2000/svg">
<g filter="url(#filter0_d)">
<path d="M77.296 34.964H72.436V17.108C72.436 16.772 72.496 15.908 72.616 14.516C72.544 14.708 72.448 14.984 72.328 15.344C72.232 15.68 72.136 15.992 72.04 16.28C71.944 16.568 71.848 16.844 71.752 17.108L65.308 35H62.644L56.02 17.108C55.924 16.844 55.828 16.568 55.732 16.28C55.636 15.992 55.528 15.68 55.408 15.344C55.312 14.984 55.228 14.708 55.156 14.516C55.156 14.732 55.18 15.14 55.228 15.74C55.3 16.34 55.336 16.796 55.336 17.108V34.964H51.412V10.844C51.412 10.82 51.364 10.64 51.268 10.304C51.196 9.968 51.112 9.62 51.016 9.26C50.944 8.9 50.908 8.696 50.908 8.648H57.82L63.436 23.768C63.7 24.488 64.048 25.94 64.48 28.124C64.528 27.956 64.648 27.356 64.84 26.324C65.056 25.268 65.26 24.464 65.452 23.912L70.96 8.648H77.296V34.964ZM97.7401 34.316C97.5241 34.364 97.1881 34.46 96.7321 34.604C96.3001 34.748 95.9401 34.868 95.6521 34.964C95.3641 35.036 95.0161 35.108 94.6081 35.18C94.2241 35.252 93.8761 35.288 93.5641 35.288C92.8441 35.288 92.2321 35.072 91.7281 34.64C91.2241 34.184 90.8881 33.596 90.7201 32.876C89.5201 34.556 87.7201 35.396 85.3201 35.396C83.8561 35.396 82.6441 34.988 81.6841 34.172C80.7241 33.356 80.2441 32.228 80.2441 30.788C80.2441 29.54 80.5441 28.484 81.1441 27.62C81.7441 26.756 82.5601 26.12 83.5921 25.712C84.6241 25.28 85.6561 24.98 86.6881 24.812C87.7201 24.62 88.8241 24.524 90.0001 24.524V22.184C90.0001 21.248 89.7961 20.6 89.3881 20.24C88.9801 19.856 88.3201 19.664 87.4081 19.664C86.1361 19.664 84.6001 20.36 82.8001 21.752L81.0361 18.908C83.2201 17.42 85.6441 16.676 88.3081 16.676C90.2281 16.676 91.7041 17.168 92.7361 18.152C93.7921 19.136 94.3201 20.588 94.3201 22.508V30.32C94.3201 31.52 94.6081 32.12 95.1841 32.12C95.3761 32.12 95.9761 31.976 96.9841 31.688L97.7401 34.316ZM90.0001 28.304V27.476C86.4961 27.476 84.7441 28.436 84.7441 30.356C84.7441 30.884 84.9481 31.304 85.3561 31.616C85.7881 31.928 86.2801 32.084 86.8321 32.084C87.7681 32.084 88.5241 31.7 89.1001 30.932C89.7001 30.14 90.0001 29.264 90.0001 28.304ZM103.613 35H99.2931V19.052C99.2931 19.028 99.2571 18.872 99.1851 18.584C99.1371 18.296 99.0771 17.984 99.0051 17.648C98.9331 17.312 98.8971 17.132 98.8971 17.108H103.613V35ZM103.397 8.612C103.949 9.164 104.225 9.824 104.225 10.592C104.225 11.36 103.949 12.02 103.397 12.572C102.869 13.1 102.221 13.364 101.453 13.364C100.685 13.364 100.025 13.1 99.4731 12.572C98.9451 12.02 98.6811 11.36 98.6811 10.592C98.6811 9.824 98.9451 9.164 99.4731 8.612C100.025 8.06 100.685 7.784 101.453 7.784C102.221 7.784 102.869 8.06 103.397 8.612ZM123.484 35H119.128V23.336C119.128 22.664 119.092 22.124 119.02 21.716C118.948 21.284 118.732 20.9 118.372 20.564C118.012 20.204 117.508 20.024 116.86 20.024C116.332 20.024 115.648 20.252 114.808 20.708C113.992 21.14 113.38 21.572 112.972 22.004V35H108.652V22.184C108.652 19.784 108.28 18.14 107.536 17.252L112.072 16.712C112.36 17.336 112.564 18.104 112.684 19.016C114.46 17.408 116.284 16.604 118.156 16.604C120.1 16.604 121.468 17.144 122.26 18.224C123.076 19.304 123.484 20.864 123.484 22.904V35ZM162.269 34.964H157.409V17.108C157.409 16.772 157.469 15.908 157.589 14.516C157.517 14.708 157.421 14.984 157.301 15.344C157.205 15.68 157.109 15.992 157.013 16.28C156.917 16.568 156.821 16.844 156.725 17.108L150.281 35H147.617L140.993 17.108C140.897 16.844 140.801 16.568 140.705 16.28C140.609 15.992 140.501 15.68 140.381 15.344C140.285 14.984 140.201 14.708 140.129 14.516C140.129 14.732 140.153 15.14 140.201 15.74C140.273 16.34 140.309 16.796 140.309 17.108V34.964H136.385V10.844C136.385 10.82 136.337 10.64 136.241 10.304C136.169 9.968 136.085 9.62 135.989 9.26C135.917 8.9 135.881 8.696 135.881 8.648H142.793L148.409 23.768C148.673 24.488 149.021 25.94 149.453 28.124C149.501 27.956 149.621 27.356 149.813 26.324C150.029 25.268 150.233 24.464 150.425 23.912L155.933 8.648H162.269V34.964ZM180.913 24.416C180.913 25.856 180.301 26.576 179.077 26.576H169.645C169.645 28.112 170.053 29.492 170.869 30.716C171.685 31.916 172.825 32.516 174.289 32.516C175.033 32.516 175.801 32.336 176.593 31.976C177.409 31.616 178.093 31.16 178.645 30.608L180.481 33.488C179.737 34.112 178.753 34.592 177.529 34.928C176.329 35.24 175.177 35.396 174.073 35.396C171.289 35.396 169.093 34.568 167.485 32.912C165.877 31.232 165.073 28.988 165.073 26.18C165.073 23.516 165.817 21.26 167.305 19.412C168.817 17.54 170.869 16.604 173.461 16.604C175.813 16.604 177.637 17.312 178.933 18.728C180.253 20.144 180.913 22.04 180.913 24.416ZM176.413 22.94C176.413 21.956 176.161 21.152 175.657 20.528C175.153 19.88 174.433 19.556 173.497 19.556C172.537 19.556 171.685 20 170.941 20.888C170.197 21.776 169.801 22.724 169.753 23.732H175.801C176.209 23.732 176.413 23.468 176.413 22.94ZM199.422 35H195.066V23.336C195.066 22.664 195.03 22.124 194.958 21.716C194.886 21.284 194.67 20.9 194.31 20.564C193.95 20.204 193.446 20.024 192.798 20.024C192.27 20.024 191.586 20.252 190.746 20.708C189.93 21.14 189.318 21.572 188.91 22.004V35H184.59V22.184C184.59 19.784 184.218 18.14 183.474 17.252L188.01 16.712C188.298 17.336 188.502 18.104 188.622 19.016C190.398 17.408 192.222 16.604 194.094 16.604C196.038 16.604 197.406 17.144 198.198 18.224C199.014 19.304 199.422 20.864 199.422 22.904V35ZM222.277 34.316C222.109 34.364 221.689 34.496 221.017 34.712C220.345 34.904 219.781 35.048 219.325 35.144C218.893 35.24 218.473 35.288 218.065 35.288C217.345 35.288 216.733 35.072 216.229 34.64C215.725 34.184 215.401 33.596 215.257 32.876C213.553 34.628 211.585 35.504 209.353 35.504C207.385 35.504 205.993 34.964 205.177 33.884C204.385 32.78 203.989 31.22 203.989 29.204V19.052L203.593 17.108H208.381V28.448C208.381 30.848 209.161 32.048 210.721 32.048C211.777 32.048 212.677 31.724 213.421 31.076C214.165 30.428 214.537 29.588 214.537 28.556V19.052C214.537 19.028 214.501 18.872 214.429 18.584C214.357 18.296 214.285 17.996 214.213 17.684C214.141 17.348 214.105 17.156 214.105 17.108H218.929V30.248C218.929 31.496 219.229 32.12 219.829 32.12C219.877 32.12 220.441 31.976 221.521 31.688L222.277 34.316Z" fill="white"/>
</g>

<defs>
<filter id="filter0_d" x="46.908" y="7.784" width="179.369" height="39.72" filterUnits="userSpaceOnUse" color-interpolation-filters="sRGB">
<feFlood flood-opacity="0" result="BackgroundImageFix"/>
<feColorMatrix in="SourceAlpha" type="matrix" values="0 0 0 0 0 0 0 0 0 0 0 0 0 0 0 0 0 0 127 0"/>
<feOffset dy="8"/>
<feGaussianBlur stdDeviation="2"/>
<feColorMatrix type="matrix" values="0 0 0 0 0 0 0 0 0 0 0 0 0 0 0 0 0 0 0.25 0"/>
<feBlend mode="normal" in2="BackgroundImageFix" result="effect1_dropShadow"/>
<feBlend mode="normal" in="SourceGraphic" in2="effect1_dropShadow" result="shape"/>
</filter>
<filter id="filter1_d" x="0.792984" y="5.27353" width="38.4273" height="41.8752" filterUnits="userSpaceOnUse" color-interpolation-filters="sRGB">
<feFlood flood-opacity="0" result="BackgroundImageFix"/>
<feColorMatrix in="SourceAlpha" type="matrix" values="0 0 0 0 0 0 0 0 0 0 0 0 0 0 0 0 0 0 127 0"/>
<feOffset dy="8"/>
<feGaussianBlur stdDeviation="2"/>
<feColorMatrix type="matrix" values="0 0 0 0 0 0 0 0 0 0 0 0 0 0 0 0 0 0 0.25 0"/>
<feBlend mode="normal" in2="BackgroundImageFix" result="effect1_dropShadow"/>
<feBlend mode="normal" in="SourceGraphic" in2="effect1_dropShadow" result="shape"/>
</filter>
</defs>
</svg>
