<svg width="223" height="53" viewBox="0 0 223 53" fill="none" xmlns="http://www.w3.org/2000/svg">
<g filter="url(#filter0_d)">
<path d="M46.624 40.868C44.248 41.684 42.568 42.2 41.584 42.416C40.6 42.656 39.292 42.776 37.66 42.776C36.628 42.776 35.5 42.644 34.276 42.38C33.052 42.116 31.696 41.708 30.208 41.156C28.744 40.604 27.532 40.124 26.572 39.716C25.612 39.308 24.292 38.72 22.612 37.952C20.932 37.184 19.876 36.704 19.444 36.512C18.724 36.2 17.188 35.792 14.836 35.288C11.356 34.544 8.788 32.972 7.132 30.572C5.5 28.172 4.684 25.28 4.684 21.896C4.684 20.096 4.948 18.392 5.476 16.784C6.004 15.152 6.772 13.7 7.78 12.428C8.788 11.132 10.108 10.112 11.74 9.368C13.372 8.6 15.22 8.216 17.284 8.216C19.348 8.216 21.196 8.6 22.828 9.368C24.46 10.112 25.78 11.132 26.788 12.428C27.796 13.7 28.552 15.152 29.056 16.784C29.584 18.392 29.848 20.096 29.848 21.896C29.848 24.416 29.32 26.768 28.264 28.952C27.208 31.112 25.552 32.804 23.296 34.028L23.728 34.244C25.672 35.18 27.28 35.936 28.552 36.512C29.824 37.088 31.54 37.712 33.7 38.384C35.86 39.056 37.672 39.392 39.136 39.392C40.768 39.392 42.988 38.972 45.796 38.132L46.624 40.868ZM24.556 21.896C24.556 20.12 24.328 18.5 23.872 17.036C23.416 15.548 22.624 14.288 21.496 13.256C20.368 12.2 18.964 11.672 17.284 11.672C15.628 11.672 14.224 12.2 13.072 13.256C11.944 14.288 11.152 15.548 10.696 17.036C10.24 18.524 10.012 20.156 10.012 21.932C10.012 23.684 10.24 25.292 10.696 26.756C11.152 28.196 11.944 29.42 13.072 30.428C14.224 31.436 15.628 31.94 17.284 31.94C19.732 31.94 21.556 30.968 22.756 29.024C23.956 27.056 24.556 24.68 24.556 21.896ZM52.755 35H47.139L39.831 23.264H37.851V35H32.919V10.844C32.919 10.796 32.835 10.448 32.667 9.8C32.499 9.128 32.403 8.744 32.379 8.648H41.415C44.079 8.648 46.227 9.212 47.859 10.34C49.491 11.468 50.307 13.304 50.307 15.848C50.307 17.336 49.743 18.728 48.615 20.024C47.487 21.32 46.179 22.148 44.691 22.508L52.755 35ZM45.087 15.812C45.087 14.684 44.691 13.808 43.899 13.184C43.107 12.56 42.123 12.248 40.947 12.248H37.851V19.736H40.155C43.443 19.736 45.087 18.428 45.087 15.812ZM77.9654 27.26C77.9654 29.804 77.0654 31.808 75.2654 33.272C73.4894 34.712 71.3054 35.432 68.7134 35.432C65.4254 35.432 62.6054 34.736 60.2534 33.344L61.9454 29.348C63.8174 31.1 65.9174 31.976 68.2454 31.976C69.4694 31.976 70.5134 31.64 71.3774 30.968C72.2654 30.296 72.7094 29.36 72.7094 28.16C72.7094 27.296 72.4214 26.528 71.8454 25.856C71.2694 25.184 70.5494 24.656 69.6854 24.272C68.8454 23.888 67.9214 23.444 66.9134 22.94C65.9054 22.412 64.9694 21.884 64.1054 21.356C63.2654 20.828 62.5574 20.084 61.9814 19.124C61.4054 18.14 61.1174 17.012 61.1174 15.74C61.1174 13.268 61.9694 11.396 63.6734 10.124C65.4014 8.852 67.6934 8.216 70.5494 8.216C71.6294 8.216 72.8774 8.432 74.2934 8.864C75.7094 9.296 76.7894 9.8 77.5334 10.376L75.0494 13.472C73.7054 12.272 72.0494 11.672 70.0814 11.672C69.0734 11.672 68.1974 11.936 67.4534 12.464C66.7334 12.992 66.3734 13.736 66.3734 14.696C66.3734 15.536 66.6614 16.28 67.2374 16.928C67.8134 17.552 68.5214 18.056 69.3614 18.44C70.2254 18.824 71.1614 19.28 72.1694 19.808C73.1774 20.336 74.1014 20.876 74.9414 21.428C75.8054 21.956 76.5254 22.724 77.1014 23.732C77.6774 24.74 77.9654 25.916 77.9654 27.26ZM94.5839 33.74C93.3839 34.34 92.3399 34.772 91.4519 35.036C90.5639 35.3 89.5319 35.432 88.3559 35.432C85.5719 35.432 83.4119 34.58 81.8759 32.876C80.3639 31.148 79.6079 28.868 79.6079 26.036C79.6079 23.228 80.4479 20.96 82.1279 19.232C83.8319 17.504 86.0759 16.64 88.8599 16.64C89.7479 16.64 90.6959 16.796 91.7039 17.108C92.7119 17.42 93.5759 17.84 94.2959 18.368L92.1359 21.104C90.8879 20.168 89.6639 19.7 88.4639 19.7C87.0719 19.7 86.0399 20.36 85.3679 21.68C84.6959 23 84.3599 24.428 84.3599 25.964C84.3599 27.044 84.4919 28.052 84.7559 28.988C85.0439 29.9 85.5479 30.704 86.2679 31.4C86.9879 32.072 87.8999 32.408 89.0039 32.408C90.1079 32.408 91.3559 31.82 92.7479 30.644L94.5839 33.74ZM113.455 34.316C113.239 34.364 112.903 34.46 112.447 34.604C112.015 34.748 111.655 34.868 111.367 34.964C111.079 35.036 110.731 35.108 110.323 35.18C109.939 35.252 109.591 35.288 109.279 35.288C108.559 35.288 107.947 35.072 107.443 34.64C106.939 34.184 106.603 33.596 106.435 32.876C105.235 34.556 103.435 35.396 101.035 35.396C99.5709 35.396 98.3589 34.988 97.3989 34.172C96.4389 33.356 95.9589 32.228 95.9589 30.788C95.9589 29.54 96.2589 28.484 96.8589 27.62C97.4589 26.756 98.2749 26.12 99.3069 25.712C100.339 25.28 101.371 24.98 102.403 24.812C103.435 24.62 104.539 24.524 105.715 24.524V22.184C105.715 21.248 105.511 20.6 105.103 20.24C104.695 19.856 104.035 19.664 103.123 19.664C101.851 19.664 100.315 20.36 98.5149 21.752L96.7509 18.908C98.9349 17.42 101.359 16.676 104.023 16.676C105.943 16.676 107.419 17.168 108.451 18.152C109.507 19.136 110.035 20.588 110.035 22.508V30.32C110.035 31.52 110.323 32.12 110.899 32.12C111.091 32.12 111.691 31.976 112.699 31.688L113.455 34.316ZM105.715 28.304V27.476C102.211 27.476 100.459 28.436 100.459 30.356C100.459 30.884 100.663 31.304 101.071 31.616C101.503 31.928 101.995 32.084 102.547 32.084C103.483 32.084 104.239 31.7 104.815 30.932C105.415 30.14 105.715 29.264 105.715 28.304ZM130.164 35H125.808V23.336C125.808 22.664 125.772 22.124 125.7 21.716C125.628 21.284 125.412 20.9 125.052 20.564C124.692 20.204 124.188 20.024 123.54 20.024C123.012 20.024 122.328 20.252 121.488 20.708C120.672 21.14 120.06 21.572 119.652 22.004V35H115.332V22.184C115.332 19.784 114.96 18.14 114.216 17.252L118.752 16.712C119.04 17.336 119.244 18.104 119.364 19.016C121.14 17.408 122.964 16.604 124.836 16.604C126.78 16.604 128.148 17.144 128.94 18.224C129.756 19.304 130.164 20.864 130.164 22.904V35ZM149.851 35H145.495V23.336C145.495 22.664 145.459 22.124 145.387 21.716C145.315 21.284 145.099 20.9 144.739 20.564C144.379 20.204 143.875 20.024 143.227 20.024C142.699 20.024 142.015 20.252 141.175 20.708C140.359 21.14 139.747 21.572 139.339 22.004V35H135.019V22.184C135.019 19.784 134.647 18.14 133.903 17.252L138.439 16.712C138.727 17.336 138.931 18.104 139.051 19.016C140.827 17.408 142.651 16.604 144.523 16.604C146.467 16.604 147.835 17.144 148.627 18.224C149.443 19.304 149.851 20.864 149.851 22.904V35ZM168.819 24.416C168.819 25.856 168.207 26.576 166.983 26.576H157.551C157.551 28.112 157.959 29.492 158.775 30.716C159.591 31.916 160.731 32.516 162.195 32.516C162.939 32.516 163.707 32.336 164.499 31.976C165.315 31.616 165.999 31.16 166.551 30.608L168.387 33.488C167.643 34.112 166.659 34.592 165.435 34.928C164.235 35.24 163.083 35.396 161.979 35.396C159.195 35.396 156.999 34.568 155.391 32.912C153.783 31.232 152.979 28.988 152.979 26.18C152.979 23.516 153.723 21.26 155.211 19.412C156.723 17.54 158.775 16.604 161.367 16.604C163.719 16.604 165.543 17.312 166.839 18.728C168.159 20.144 168.819 22.04 168.819 24.416ZM164.319 22.94C164.319 21.956 164.067 21.152 163.563 20.528C163.059 19.88 162.339 19.556 161.403 19.556C160.443 19.556 159.591 20 158.847 20.888C158.103 21.776 157.707 22.724 157.659 23.732H163.707C164.115 23.732 164.319 23.468 164.319 22.94ZM182.504 16.748L181.784 21.032H181.64C180.584 21.032 179.66 21.332 178.868 21.932C178.1 22.508 177.344 23.312 176.6 24.344V35H172.28V21.932C172.28 19.748 171.896 18.14 171.128 17.108L175.7 16.748C176.228 17.948 176.516 19.208 176.564 20.528C177.188 19.472 178.04 18.584 179.12 17.864C180.224 17.12 181.352 16.748 182.504 16.748Z" fill="white"/>
</g>

<defs>
<filter id="filter0_d" x="0.683998" y="8.216" width="185.82" height="44.56" filterUnits="userSpaceOnUse" color-interpolation-filters="sRGB">
<feFlood flood-opacity="0" result="BackgroundImageFix"/>
<feColorMatrix in="SourceAlpha" type="matrix" values="0 0 0 0 0 0 0 0 0 0 0 0 0 0 0 0 0 0 127 0"/>
<feOffset dy="6"/>
<feGaussianBlur stdDeviation="2"/>
<feColorMatrix type="matrix" values="0 0 0 0 0 0 0 0 0 0 0 0 0 0 0 0 0 0 0.25 0"/>
<feBlend mode="normal" in2="BackgroundImageFix" result="effect1_dropShadow"/>
<feBlend mode="normal" in="SourceGraphic" in2="effect1_dropShadow" result="shape"/>
</filter>
<filter id="filter1_d" x="187" y="10.2721" width="36" height="41.4558" filterUnits="userSpaceOnUse" color-interpolation-filters="sRGB">
<feFlood flood-opacity="0" result="BackgroundImageFix"/>
<feColorMatrix in="SourceAlpha" type="matrix" values="0 0 0 0 0 0 0 0 0 0 0 0 0 0 0 0 0 0 127 0"/>
<feOffset dy="8"/>
<feGaussianBlur stdDeviation="2"/>
<feColorMatrix type="matrix" values="0 0 0 0 0 0 0 0 0 0 0 0 0 0 0 0 0 0 0.25 0"/>
<feBlend mode="normal" in2="BackgroundImageFix" result="effect1_dropShadow"/>
<feBlend mode="normal" in="SourceGraphic" in2="effect1_dropShadow" result="shape"/>
</filter>
</defs>
</svg>
